# xmcd
#
# Track frame offsets: 
#        150
#        13655
#        32597
#        44177
#        59722
#        80492
#        98087
#        113012
#        127107
#        142010
#        160187
#        177545
#        193580
#        206380
#
# Disc length: 2984 seconds
#
# Revision: 2
# Processed by: cddbd v1.4PL0 Copyright (c) Steve Scherf et al.
# Submitted via: ExactAudioCopy v0.95a4
#
DISCID=cb0ba60e
DTITLE=John Williamson - Fair dinkum J.W.
DYEAR=1982
DGENRE=Country
TTITLE0=Country Football
TTITLE1=Kill The Night
TTITLE2=(Why Don't We) Separate And Be Lovers
TTITLE3=Botany Bay
TTITLE4=Wrinkles
TTITLE5=Road Train
TTITLE6=The Ryebuck Shearer
TTITLE7=(You've Gotta Be) Fair Dinkum
TTITLE8=Just A Dog
TTITLE9=Silver-Haired Showman
TTITLE10=With My Swag Upon My Shoulder
TTITLE11=Love Of A True Blue Girl
TTITLE12=Your Body Feels Like Heaven To Me
TTITLE13=Brisbane Ladies
EXTD=
EXTT0=
EXTT1=
EXTT2=
EXTT3=
EXTT4=
EXTT5=
EXTT6=
EXTT7=
EXTT8=
EXTT9=
EXTT10=
EXTT11=
EXTT12=
EXTT13=
PLAYORDER=
